<svg xmlns="http://www.w3.org/2000/svg" viewBox="0 0 32 32">
  <!-- Flask neck -->
  <rect x="12" y="2" width="8" height="3" rx="1.5" fill="#6b7280"/>
  <!-- Cork -->
  <rect x="13" y="1" width="6" height="2" rx="1" fill="#a08060"/>
  <!-- Flask body -->
  <path d="M13 5 L13 12 L7 22 Q5 28 10 30 L22 30 Q27 28 25 22 L19 12 L19 5 Z"
        fill="#673AB7" stroke="#311B92" stroke-width="1.2" stroke-linejoin="round"/>
  <!-- Liquid highlight -->
  <path d="M13 5 L13 12 L8 21 Q9 26 12 28 L11 28 Q6 26 8 21 L14 11 L14 5 Z"
        fill="#9575CD" opacity="0.5"/>
  <!-- Slow symbol (Hourglass) -->
  <path d="M13 18 L19 18 L16 22 L19 26 L13 26 L16 22 Z" fill="#EDE7F6" stroke="#4527A0" stroke-width="0.5" opacity="0.9"/>
  <!-- Heavy bubbles -->
  <circle cx="11" cy="24" r="1.5" fill="#B39DDB" opacity="0.6"/>
  <circle cx="21" cy="22" r="1" fill="#B39DDB" opacity="0.5"/>
</svg>
